<?xml version="1.0" encoding="UTF-8"?>
<svg width="292px" height="49px" viewBox="0 0 292 49" version="1.1" xmlns="http://www.w3.org/2000/svg" xmlns:xlink="http://www.w3.org/1999/xlink">
    <!-- Generator: Sketch 49.3 (51167) - http://www.bohemiancoding.com/sketch -->
    <title>Page 1</title>
    <desc>Created with Sketch.</desc>
    <defs>
        <polygon id="path-1" points="0.5321 0.3912 36.4791 0.3912 36.4791 49 0.5321 49"></polygon>
    </defs>
    <g id="Page-1" stroke="none" stroke-width="1" fill="none" fill-rule="evenodd">
        <g transform="translate(0.000000, -1.000000)">
            <polygon id="Fill-1" fill="#FFFFFF" points="13.2498 5.7821 -0.0002 14.6521 4.3788 22.3731 11.0038 18.3411 11.0038 45.3581 22.1798 45.3581 22.1798 5.7821"></polygon>
            <polygon id="Fill-2" fill="#FFFFFF" points="115.202 45.358 126.32 45.358 126.32 15.575 115.202 15.575"></polygon>
            <g id="Group-20" transform="translate(28.000000, 0.946000)">
                <path d="M92.8477,0.0544 C89.6217,0.0544 87.0867,2.7034 87.0867,5.7004 C87.0867,8.8104 89.6217,11.4604 92.8477,11.4604 C95.9587,11.4604 98.4937,8.8104 98.4937,5.7004 C98.4937,2.7034 95.9587,0.0544 92.8477,0.0544" id="Fill-3" fill="#FFFFFF"></path>
                <path d="M119.461,35.8864 C117.963,35.8864 116.926,34.6184 116.926,32.8324 L116.926,23.3854 L122.802,23.3854 L122.802,14.6284 L116.926,14.6284 L116.926,6.4494 L106.326,6.4494 L106.326,14.6284 L102.582,14.6284 L102.582,23.3854 L106.326,23.3854 L106.326,35.0224 C106.326,40.9554 110.474,45.1034 116.408,45.1034 C119.057,45.1034 122.226,43.8354 124.069,42.0504 L122.168,35.0224 C121.592,35.5404 120.498,35.8864 119.461,35.8864" id="Fill-5" fill="#FFFFFF"></path>
                <path d="M134.7256,31.7956 C130.8656,31.7956 127.9276,34.8496 127.9276,38.3056 C127.9276,42.0506 130.8656,45.1036 134.7256,45.1036 C138.2976,45.1036 141.2346,42.0506 141.2346,38.3056 C141.2346,34.8496 138.2976,31.7956 134.7256,31.7956" id="Fill-7" fill="#FFFFFF"></path>
                <path d="M161.9727,35.8864 C158.5747,35.8864 155.7507,32.9484 155.7507,29.4344 C155.7507,26.0344 158.5747,23.1554 161.9147,23.1554 C163.8167,23.1554 165.9477,24.1344 167.0997,25.4584 L174.4157,19.4674 C171.5357,16.1264 167.3297,13.9374 162.0307,13.9374 C152.8707,13.9374 145.1517,21.0234 145.1517,29.4914 C145.1517,37.9594 152.8137,45.1034 161.8577,45.1034 C167.3877,45.1034 171.5937,42.8574 174.5897,39.4004 L167.2727,33.5244 C166.0627,34.9074 163.8737,35.8864 161.9727,35.8864" id="Fill-9" fill="#FFFFFF"></path>
                <path d="M193.1377,35.8864 C189.6237,35.8864 186.6857,32.9484 186.6857,29.4914 C186.6857,26.0344 189.6237,23.1554 193.1377,23.1554 C196.5937,23.1554 199.5327,26.0344 199.5327,29.4914 C199.5327,32.9484 196.5937,35.8864 193.1377,35.8864 M193.1377,13.9374 C183.9777,13.9374 176.3157,21.0234 176.3157,29.4914 C176.3157,37.9594 183.9777,45.1034 193.1377,45.1034 C202.2397,45.1034 209.9017,37.9594 209.9017,29.4914 C209.9017,21.0234 202.2397,13.9374 193.1377,13.9374" id="Fill-11" fill="#FFFFFF"></path>
                <path d="M252.1836,13.9372 C247.8056,13.9372 244.2336,15.8382 242.5056,18.8342 C240.4896,15.7812 237.0326,13.9372 233.1736,13.9372 C229.6586,13.9372 226.8936,15.6082 225.4536,18.2582 L225.4536,14.6282 L214.3356,14.6282 L214.3356,44.4122 L225.4536,44.4122 L225.4536,27.1292 C225.4536,24.8252 227.1816,23.1552 229.6586,23.1552 C232.1366,23.1552 233.8646,24.9412 233.8646,27.4752 L233.8646,44.4692 L244.4646,44.4692 L244.4646,27.1292 C244.4646,24.8252 246.1926,23.1552 248.6696,23.1552 C251.1466,23.1552 252.8746,24.9412 252.8746,27.4752 L252.8746,44.4692 L263.4746,44.4692 L263.4746,25.4582 C263.4746,18.7192 258.4056,13.9372 252.1836,13.9372" id="Fill-13" fill="#FFFFFF"></path>
                <g id="Group-17" transform="translate(46.000000, 0.000000)">
                    <mask id="mask-2" fill="white">
                        <use xlink:href="#path-1"></use>
                    </mask>
                    <g id="Clip-16"></g>
                    <path d="M20.8101,35.0222 L11.6501,35.0222 L11.6501,28.6852 L20.8101,28.6852 C23.2291,28.6852 24.9581,30.0102 24.9581,31.8542 C24.9581,33.6972 23.2291,35.0222 20.8101,35.0222 Z M11.6501,14.2252 L19.1401,14.2252 C21.4441,14.2252 23.1151,15.4932 23.1151,17.2212 C23.1151,18.9502 21.4441,20.2172 19.1401,20.2172 L11.6501,20.2172 L11.6501,14.2252 Z M29.1641,23.6732 C32.6201,22.0022 34.6361,18.6622 34.6361,14.8012 C34.6361,9.2262 29.7251,5.1082 22.5681,4.8492 L22.5681,0.3912 L10.7081,0.3912 L10.7081,4.8352 L0.5321,4.8352 L0.5321,44.4122 L10.7081,44.4122 L10.7081,49.0002 L22.5681,49.0002 L22.5681,44.4122 L22.6541,44.4122 C30.7191,44.4122 36.4791,40.0912 36.4791,33.7542 C36.4791,29.3762 33.7721,25.6322 29.1641,23.6732 Z" id="Fill-15" fill="#FFFFFF" mask="url(#mask-2)"></path>
                </g>
                <polygon id="Fill-18" fill="#E07631" points="30.9946 4.8357 20.3126 15.5177 9.6306 4.8357 0.5246 13.9417 11.2066 24.6237 0.5246 35.3057 9.6306 44.4117 20.3126 33.7307 30.9946 44.4117 40.1006 35.3057 29.4186 24.6237 40.1006 13.9417"></polygon>
            </g>
        </g>
    </g>
</svg>